<svg width="59" height="79" viewBox="0 0 59 79" fill="none" xmlns="http://www.w3.org/2000/svg">
<path d="M2.5 5.31643C2.5 2.72267 4.68692 0.665922 7.2758 0.824888L54.2758 3.71085C56.6495 3.85661 58.5 5.82421 58.5 8.20239V70.3484C58.5 73.0512 56.1342 75.1443 53.4515 74.8148L6.45149 69.0429C4.19528 68.7658 2.5 66.8496 2.5 64.5765V5.31643Z" fill="white" stroke="black"/>
<path d="M0.5 8.35852C0.5 5.75075 2.7096 3.68899 5.31113 3.86929L45.8111 6.67622C48.17 6.83971 50 8.80092 50 11.1655V73.2591C50 75.9901 47.5872 78.0915 44.8821 77.7165L4.38215 72.1026C2.15689 71.7942 0.5 69.8918 0.5 67.6453V8.35852Z" fill="#86CCFF" stroke="black"/>
<line x1="53.5" y1="6" x2="53.5" y2="74" stroke="black"/>
<line x1="9.03739" y1="2.5014" x2="49.0374" y2="5.5014" stroke="black"/>
<line x1="56.5" y1="8" x2="56.5" y2="74" stroke="black"/>
<path d="M15.3363 17.3565C15.3384 17.3919 15.3538 17.4232 15.3823 17.4503C15.4158 17.4743 15.4547 17.493 15.4991 17.5067C15.5434 17.5203 15.5864 17.5318 15.6279 17.5412C15.6744 17.5473 15.7131 17.5524 15.7441 17.5565L15.7848 17.5618C15.8017 17.5446 15.8326 17.5272 15.8777 17.5097C15.9238 17.4885 15.9473 17.476 15.9484 17.4722C15.9561 17.4732 15.9868 17.4714 16.0403 17.4668C16.0976 17.4626 16.1302 17.4611 16.138 17.4621C16.1457 17.4631 16.1608 17.4592 16.1834 17.4505C16.2069 17.438 16.2231 17.4304 16.2319 17.4276C16.2516 17.4146 16.2889 17.3961 16.3438 17.3722C16.4036 17.3449 16.4423 17.3286 16.4599 17.3231C16.4835 17.3106 16.5169 17.2916 16.5602 17.2661C16.6045 17.2368 16.6483 17.2094 16.6916 17.1839C16.7359 17.1547 16.7729 17.1303 16.8024 17.1108C16.8369 17.088 16.8566 17.075 16.8615 17.0717C16.8686 17.061 16.8807 17.0392 16.8979 17.0063C16.92 16.9702 16.9422 16.9341 16.9643 16.8981C16.9875 16.8582 17.0097 16.8221 17.0308 16.7898C17.0529 16.7537 17.067 16.7322 17.0729 16.7251C17.0789 16.7181 17.0905 16.6982 17.1077 16.6654C17.1288 16.633 17.151 16.5969 17.1742 16.5571C17.1974 16.5172 17.2176 16.4809 17.2348 16.4481C17.2559 16.4157 17.2675 16.3958 17.2696 16.3883C17.2773 16.3893 17.2854 16.3748 17.2938 16.3447C17.3022 16.3146 17.3091 16.2901 17.3143 16.2713L17.3364 16.1923C17.3449 16.1622 17.3473 16.1392 17.3438 16.1231C17.3402 16.107 17.3346 16.077 17.3268 16.0331C17.325 16.0251 17.3234 16.0092 17.322 15.9857C17.3216 15.9583 17.3212 15.9309 17.3208 15.9036C17.3215 15.8725 17.3211 15.8451 17.3197 15.8215C17.3193 15.7942 17.3202 15.7767 17.3223 15.7692C17.3167 15.7607 17.3078 15.742 17.2958 15.7131C17.2877 15.6847 17.2796 15.6563 17.2715 15.628C17.2644 15.5958 17.2563 15.5675 17.2471 15.5429C17.2428 15.515 17.2412 15.4992 17.2423 15.4954C17.2398 15.4756 17.2273 15.4486 17.2047 15.4144C17.186 15.3808 17.1649 15.3487 17.1413 15.3183C17.1226 15.2846 17.1023 15.2566 17.0805 15.2342C17.0635 15.2086 17.0551 15.1958 17.0551 15.1958C17.0484 15.191 17.0345 15.1833 17.0133 15.1727C16.9961 15.1627 16.9735 15.15 16.9457 15.1346C16.9218 15.1197 16.8953 15.1065 16.8665 15.0949C16.8425 15.0801 16.8233 15.0697 16.8089 15.0639C16.7916 15.0539 16.7686 15.043 16.7397 15.0314C16.7119 15.016 16.6816 15.0023 16.6488 14.9902C16.6161 14.9781 16.5867 14.9684 16.5606 14.961C16.5356 14.9499 16.5212 14.9441 16.5173 14.9436L16.3604 14.923C16.2869 14.9133 16.2233 14.9108 16.1698 14.9154C16.1212 14.9168 16.0633 14.9443 15.9962 14.9979C15.9375 15.1072 15.8867 15.2097 15.8439 15.3055C15.8059 15.398 15.7699 15.4907 15.7359 15.5838C15.7067 15.6735 15.6771 15.7652 15.6469 15.8587C15.6206 15.9528 15.5922 16.0543 15.5617 16.1634C15.5311 16.2725 15.5022 16.376 15.4748 16.4738C15.4524 16.5683 15.4299 16.6629 15.4075 16.7575C15.3889 16.8525 15.3723 16.9478 15.3576 17.0434C15.3468 17.1395 15.3397 17.2439 15.3363 17.3565ZM12.8765 19.4314C12.886 19.3976 12.8953 19.3715 12.9045 19.3532C12.9175 19.3354 12.9456 19.3138 12.9889 19.2882C13.0065 19.2828 13.0411 19.2737 13.0929 19.261C13.1446 19.2483 13.1754 19.2387 13.1853 19.2322C13.2029 19.2267 13.2335 19.2249 13.2771 19.2267C13.3218 19.2248 13.368 19.225 13.4155 19.2274C13.4679 19.2265 13.5155 19.2289 13.5581 19.2345C13.6056 19.2368 13.639 19.2393 13.6584 19.2418L13.6985 19.2062L13.8942 18.5065C13.9104 18.4774 13.9261 18.4502 13.9412 18.4249C13.9552 18.4033 13.9663 18.3853 13.9744 18.3707C13.9874 18.353 13.9944 18.3422 13.9955 18.3384C14.0007 18.3196 14.0098 18.2799 14.0228 18.2192C14.0368 18.1547 14.0523 18.0924 14.0691 18.0322C14.0775 18.0021 14.0849 17.9758 14.0912 17.9532C14.0975 17.9306 14.1061 17.9142 14.117 17.9039C14.117 17.9039 14.1211 17.8967 14.1291 17.8821C14.1372 17.8676 14.1439 17.8509 14.1492 17.8321C14.1583 17.8138 14.1669 17.7974 14.175 17.7828C14.1841 17.7645 14.1897 17.7516 14.1919 17.7441L14.2108 17.6764C14.2224 17.635 14.2299 17.6009 14.2334 17.5741C14.2408 17.5477 14.2425 17.5129 14.2386 17.4694C14.2428 17.4544 14.2493 17.424 14.258 17.3784C14.2707 17.3332 14.2819 17.286 14.2917 17.2366C14.3064 17.1839 14.3176 17.1366 14.3253 17.0947C14.338 17.0496 14.3464 17.0195 14.3506 17.0044C14.4243 16.7411 14.5036 16.4863 14.5885 16.2401C14.6735 15.9939 14.7523 15.741 14.8249 15.4814L14.8691 15.3234C14.8744 15.3046 14.8789 15.274 14.8827 15.2316C14.8915 15.1859 14.8969 15.1379 14.899 15.0875C14.9049 15.0375 14.9078 14.9911 14.9078 14.9482C14.9116 14.9058 14.9142 14.8749 14.9156 14.8556C14.8955 14.7984 14.8585 14.7584 14.8046 14.7357C14.7557 14.7098 14.6988 14.6906 14.634 14.6781C14.5742 14.6625 14.5148 14.6449 14.456 14.6255C14.3972 14.606 14.3528 14.5709 14.3228 14.5202C14.32 14.5159 14.3197 14.51 14.3218 14.5025C14.3249 14.4912 14.3276 14.4818 14.3297 14.4743C14.3381 14.4442 14.3634 14.4182 14.4056 14.3965C14.4479 14.3748 14.4968 14.3578 14.5524 14.3456C14.608 14.3334 14.6606 14.3248 14.7102 14.3196C14.7637 14.3149 14.806 14.3146 14.837 14.3187C14.9183 14.3294 14.9898 14.3466 15.0514 14.3704C15.1141 14.3903 15.19 14.4061 15.279 14.4179C15.5075 14.448 15.7299 14.4714 15.946 14.4881C16.1671 14.5016 16.3938 14.5237 16.6262 14.5543L17.2129 14.6315C17.2158 14.6358 17.2258 14.643 17.2431 14.653C17.2603 14.6631 17.2795 14.6734 17.3007 14.684C17.3218 14.6946 17.3405 14.7068 17.3567 14.7207C17.3739 14.7307 17.384 14.7379 17.3868 14.7422C17.3984 14.7437 17.4153 14.7479 17.4375 14.7547C17.4635 14.762 17.4891 14.7712 17.5141 14.7823C17.5401 14.7897 17.5618 14.7984 17.5791 14.8084C17.6012 14.8153 17.6137 14.8208 17.6166 14.8251C17.6194 14.8293 17.6264 14.84 17.6377 14.8571C17.6539 14.8709 17.6696 14.8867 17.6848 14.9043C17.7048 14.9186 17.7205 14.9343 17.7318 14.9514C17.748 14.9652 17.758 14.9724 17.7619 14.9729C17.7658 14.9734 17.7764 14.9787 17.7936 14.9888C17.8147 14.9994 17.8354 15.0118 17.8554 15.0262C17.8794 15.041 17.8995 15.0554 17.9157 15.0692C17.9368 15.0798 17.9468 15.087 17.9458 15.0907C17.9803 15.1109 18.0046 15.1316 18.0187 15.153C18.0378 15.1711 18.0524 15.1906 18.0626 15.2114C18.0767 15.2328 18.0878 15.2577 18.0959 15.286C18.1079 15.3149 18.1214 15.3459 18.1362 15.3791C18.2363 15.5522 18.2868 15.7304 18.2877 15.9139C18.2925 16.0978 18.2675 16.2876 18.2128 16.4832C18.2043 16.5133 18.1933 16.5528 18.1796 16.6017C18.1659 16.6506 18.1561 16.6786 18.1501 16.6856C18.148 16.6931 18.1394 16.7095 18.1243 16.7348C18.1092 16.7602 18.0935 16.7873 18.0774 16.8164C18.0623 16.8417 18.0452 16.8668 18.0262 16.8916C18.0122 16.9131 18.0027 16.9255 17.9977 16.9288C17.8898 17.1135 17.7592 17.2718 17.6059 17.4038C17.4564 17.5362 17.2919 17.6432 17.1125 17.7249C16.9341 17.8029 16.7465 17.8562 16.5497 17.8849C16.353 17.9136 16.1558 17.9149 15.9583 17.8889C15.846 17.8741 15.7384 17.8424 15.6356 17.7938C15.5366 17.7456 15.4348 17.7147 15.3303 17.7009L15.2838 17.6948C15.2644 17.6923 15.244 17.6935 15.2226 17.6984C15.205 17.7039 15.1886 17.7193 15.1735 17.7446C15.1289 17.8324 15.0888 17.9324 15.0534 18.0448C15.019 18.1533 14.9876 18.2584 14.9592 18.36L14.8929 18.597L14.735 19.1612C14.7161 19.229 14.7217 19.2804 14.7521 19.3156C14.7834 19.347 14.8246 19.372 14.8757 19.3904C14.9306 19.4093 14.9905 19.425 15.0553 19.4374C15.1211 19.4461 15.1796 19.4596 15.2306 19.4781C15.2856 19.497 15.3276 19.5259 15.3569 19.5649C15.3872 19.6001 15.3929 19.6515 15.374 19.7193C15.3497 19.8058 15.3014 19.8638 15.2289 19.8932C15.1613 19.9194 15.0792 19.9262 14.9823 19.9134L12.984 19.6503C12.922 19.6422 12.8852 19.6159 12.8735 19.5714C12.8629 19.5232 12.8639 19.4766 12.8765 19.4314ZM19.5072 20.4682C19.5208 20.4193 19.543 20.3832 19.5736 20.3599C19.6053 20.3329 19.6411 20.3122 19.6813 20.298C19.7252 20.2843 19.7856 20.2767 19.8624 20.2751C19.9401 20.2697 20.0179 20.2643 20.0957 20.259C20.1785 20.2504 20.2525 20.2367 20.318 20.218C20.3845 20.1956 20.4309 20.1588 20.4573 20.1077L20.4905 19.9892L20.5062 19.9327C20.5136 19.9064 20.5299 19.8481 20.5552 19.7578C20.5854 19.6643 20.6173 19.5573 20.651 19.4369C20.6896 19.3133 20.7303 19.1822 20.7731 19.0435C20.8159 18.9048 20.8547 18.7734 20.8894 18.6493C20.928 18.5256 20.9599 18.4187 20.9852 18.3284C21.0154 18.2349 21.0347 18.173 21.0431 18.143L21.3162 17.1668L21.5877 16.1962C21.5873 16.126 21.5572 16.0615 21.4973 16.0029C21.4423 15.9411 21.3761 15.9051 21.2986 15.8949L20.555 15.797C20.5279 15.7934 20.486 15.7996 20.4294 15.8155C20.3727 15.8315 20.3336 15.8419 20.3122 15.8469C20.1408 15.9141 19.9964 15.9926 19.8789 16.0824C19.7624 16.1685 19.6434 16.264 19.5217 16.3689C19.5118 16.3754 19.4965 16.387 19.4758 16.4038C19.4589 16.421 19.439 16.4418 19.4162 16.4661C19.3982 16.4872 19.3784 16.508 19.3565 16.5285C19.3397 16.5458 19.3282 16.5579 19.3223 16.5649C19.3092 16.5827 19.2889 16.6054 19.2611 16.6329C19.2333 16.6605 19.2036 16.6878 19.1719 16.7148C19.1403 16.7418 19.1077 16.7648 19.0743 16.7839C19.0447 16.8034 19.0203 16.8118 19.0009 16.8093C18.9622 16.8042 18.9319 16.7905 18.9101 16.7681C18.8921 16.7462 18.8796 16.7192 18.8725 16.6871C18.8693 16.6555 18.8685 16.6222 18.8703 16.5873C18.8769 16.5492 18.885 16.5132 18.8945 16.4793C18.9176 16.3966 18.9475 16.3186 18.984 16.2454C19.0205 16.1722 19.0581 16.0953 19.0968 16.0145C19.1221 15.9672 19.1547 15.8935 19.1948 15.7934C19.2397 15.6901 19.288 15.5892 19.3397 15.4907C19.3924 15.3884 19.4511 15.3006 19.5158 15.2272C19.5805 15.1538 19.6497 15.122 19.7232 15.1317C19.7271 15.1322 19.7343 15.1351 19.7449 15.1404C19.7565 15.1419 19.7662 15.1432 19.7739 15.1442C19.7845 15.1495 19.7956 15.1529 19.8072 15.1544C19.8167 15.1635 19.8363 15.1797 19.8659 15.2031C19.8965 15.2227 19.9286 15.2445 19.962 15.2684C19.9994 15.2928 20.0334 15.3149 20.064 15.3345C20.0947 15.3541 20.1139 15.3645 20.1216 15.3655C20.1244 15.3698 20.135 15.3751 20.1533 15.3814C20.1765 15.3844 20.1998 15.3875 20.223 15.3905C20.2501 15.3941 20.2753 15.3974 20.2985 15.4005C20.3218 15.4035 20.3373 15.4056 20.345 15.4066C20.345 15.4066 20.3536 15.4116 20.3709 15.4217C20.3931 15.4285 20.4147 15.4372 20.4359 15.4478C20.4609 15.4589 20.482 15.4695 20.4993 15.4796C20.5215 15.4864 20.5345 15.4901 20.5384 15.4906C20.732 15.5161 20.9284 15.5244 21.1277 15.5155C21.3318 15.5034 21.5308 15.5101 21.7244 15.5355C22.0652 15.5804 22.3969 15.6436 22.7194 15.725C23.0469 15.8033 23.3791 15.8646 23.716 15.9089L24.0123 15.9479C24.0211 15.9452 24.042 15.9421 24.0751 15.9386C24.1093 15.9314 24.1448 15.9264 24.1818 15.9234C24.2198 15.9167 24.2578 15.91 24.2958 15.9033C24.3338 15.8966 24.3616 15.8905 24.3792 15.8851C24.4172 15.8784 24.45 15.869 24.4774 15.857C24.5059 15.8413 24.5325 15.8253 24.5571 15.809C24.5856 15.7933 24.615 15.7815 24.6452 15.7738C24.6766 15.7623 24.7135 15.7594 24.7561 15.765C24.8297 15.7747 24.8783 15.8162 24.902 15.8895C24.9306 15.9596 24.9439 16.0413 24.9418 16.1346C24.9437 16.2285 24.9373 16.3232 24.9226 16.4188C24.9128 16.5111 24.9108 16.583 24.9164 16.6345C24.9098 16.7155 24.9104 16.7994 24.9183 16.8863C24.93 16.9736 24.9232 17.0624 24.8979 17.1527C24.8906 17.179 24.8783 17.2086 24.8611 17.2415C24.8477 17.2748 24.8291 17.3055 24.8052 17.3336C24.7823 17.3579 24.7547 17.3776 24.7223 17.3929C24.69 17.4081 24.6544 17.4132 24.6157 17.4081C24.577 17.403 24.5384 17.3686 24.4999 17.3051C24.4626 17.2378 24.4229 17.1643 24.3809 17.0846C24.3439 17.0018 24.3063 16.9208 24.2682 16.8416C24.234 16.763 24.1968 16.7094 24.1566 16.6807C24.1499 16.6759 24.1351 16.6642 24.1122 16.6456C24.0932 16.6275 24.0703 16.6089 24.0435 16.5897C24.0206 16.5711 23.9972 16.5544 23.9733 16.5395C23.9542 16.5214 23.9414 16.51 23.9347 16.5052C23.8727 16.4541 23.8137 16.3996 23.7576 16.3415C23.7055 16.2839 23.6429 16.2347 23.57 16.1939C23.5584 16.1924 23.5371 16.1896 23.5061 16.1855C23.479 16.1819 23.45 16.1781 23.419 16.174C23.3891 16.1662 23.3605 16.1605 23.3334 16.1569C23.3102 16.1539 23.2928 16.1516 23.2811 16.15L23.1708 16.1355C23.0894 16.1248 23.0046 16.1195 22.9162 16.1195C22.8279 16.1196 22.754 16.1469 22.6945 16.2015C22.6861 16.2316 22.6749 16.2789 22.6609 16.3433C22.6469 16.4078 22.6293 16.4777 22.6083 16.5529C22.5872 16.6281 22.5658 16.6975 22.5441 16.7609C22.5223 16.8244 22.5077 16.8692 22.5004 16.8956C22.4983 16.9031 22.4907 16.9157 22.4777 16.9335C22.4696 16.9481 22.4591 16.9642 22.4461 16.982C22.433 16.9998 22.42 17.0176 22.407 17.0354C22.3989 17.0499 22.3924 17.0588 22.3875 17.0621L21.906 18.7831C21.8522 18.8462 21.8162 18.8961 21.7979 18.9327C21.7797 18.9693 21.7616 19.0196 21.7437 19.0835L21.72 19.1682C21.7179 19.1757 21.7151 19.1929 21.7116 19.2197C21.713 19.2433 21.7115 19.2704 21.7069 19.301C21.7073 19.3283 21.7058 19.3554 21.7023 19.3823C21.6998 19.4054 21.6975 19.4207 21.6954 19.4282L21.517 20.0658C21.5066 20.1463 21.5065 20.2185 21.5167 20.2822C21.527 20.346 21.5756 20.3875 21.6626 20.4068C21.677 20.4126 21.707 20.4204 21.7524 20.4303C21.8017 20.4407 21.8529 20.4513 21.9061 20.4622C21.9631 20.4736 22.0163 20.4845 22.0656 20.4949C22.1187 20.5058 22.155 20.5125 22.1744 20.5151C22.1962 20.5375 22.2102 20.5666 22.2162 20.6025C22.2271 20.6351 22.2279 20.6684 22.2184 20.7023C22.21 20.7323 22.1959 20.7539 22.1762 20.7669C22.1604 20.7804 22.1313 20.7981 22.0891 20.8198C21.9004 20.7911 21.6985 20.7664 21.4834 20.7459C21.2732 20.7221 21.0586 20.6997 20.8396 20.6787C20.6256 20.6544 20.4135 20.6304 20.2033 20.6066C19.992 20.5866 19.7954 20.5646 19.6134 20.5407C19.5824 20.5366 19.5539 20.5309 19.5278 20.5235C19.5056 20.5167 19.4987 20.4983 19.5072 20.4682ZM25.2313 19.5134C25.2859 19.505 25.328 19.5339 25.3576 19.6002C25.3911 19.6671 25.4151 19.7463 25.4296 19.8379C25.4452 19.9258 25.4555 20.011 25.4605 20.0935C25.4655 20.1761 25.4737 20.2259 25.485 20.243C25.4867 20.2511 25.4936 20.2695 25.5056 20.2984C25.5187 20.3235 25.5326 20.3527 25.5474 20.3858C25.5671 20.4157 25.585 20.4454 25.6008 20.4747C25.6206 20.5046 25.6347 20.526 25.6431 20.5388C25.641 20.5463 25.6465 20.5627 25.6595 20.5878C25.6765 20.6134 25.6902 20.6289 25.7008 20.6342C25.6994 20.6535 25.7035 20.6891 25.713 20.7411C25.7236 20.7893 25.7318 20.8177 25.7374 20.8262C25.7558 20.8754 25.7912 20.921 25.8437 20.9631C25.9011 21.0018 25.964 21.0355 26.0323 21.0639C26.1006 21.0924 26.17 21.1172 26.2404 21.1382C26.3119 21.1554 26.3728 21.1673 26.4231 21.1739L26.4638 21.1793C26.605 21.1627 26.7403 21.124 26.8698 21.063C27.0031 21.0026 27.1227 20.9267 27.2286 20.8353C27.3384 20.7445 27.4319 20.6398 27.5092 20.5212C27.5866 20.4027 27.6442 20.2757 27.6821 20.1403C27.6968 20.0876 27.7113 20.0213 27.7257 19.9413C27.74 19.8612 27.7275 19.7913 27.688 19.7315C27.6767 19.7144 27.6598 19.6888 27.6372 19.6546C27.6185 19.621 27.5979 19.5871 27.5753 19.5529C27.5528 19.5187 27.5316 19.4867 27.5119 19.4568C27.496 19.4274 27.4828 19.41 27.4722 19.4048C27.4296 19.3562 27.3824 19.3169 27.3306 19.2866C27.2799 19.2527 27.2251 19.226 27.1663 19.2065C27.1124 19.1838 27.0555 19.1646 26.9957 19.1489C26.9408 19.13 26.8839 19.1108 26.8251 19.0914C26.7124 19.0492 26.5835 18.9933 26.4384 18.9235C26.2982 18.8504 26.1651 18.7666 26.0389 18.672C25.9128 18.5773 25.8034 18.4732 25.7107 18.3596C25.6191 18.2422 25.5684 18.1147 25.5588 17.9769C25.5524 17.9565 25.5498 17.923 25.5508 17.8764C25.5528 17.8259 25.556 17.7717 25.5601 17.7138C25.5682 17.6563 25.5781 17.5991 25.5901 17.5422C25.602 17.4853 25.6142 17.4342 25.6269 17.3891C25.6437 17.3289 25.6576 17.2937 25.6685 17.2834C25.6695 17.2796 25.6727 17.2684 25.678 17.2496C25.6832 17.2307 25.6885 17.2119 25.6937 17.1931C25.7039 17.1711 25.7117 17.1506 25.7169 17.1318C25.726 17.1135 25.7331 17.1027 25.738 17.0995C25.7401 17.092 25.7468 17.0753 25.758 17.0495C25.7742 17.0204 25.7904 16.9913 25.8065 16.9623C25.8266 16.9337 25.8422 16.9065 25.8534 16.8807C25.8696 16.8516 25.8787 16.8333 25.8808 16.8258C25.8819 16.822 25.8909 16.8115 25.9077 16.7942C25.9285 16.7774 25.9492 16.7607 25.97 16.7439C25.9946 16.7276 26.0149 16.7128 26.0307 16.6992C26.0514 16.6825 26.0643 16.6725 26.0692 16.6692C26.084 16.6594 26.1028 16.6424 26.1257 16.6181C26.1524 16.5943 26.1791 16.5706 26.2058 16.5468C26.2336 16.5192 26.2584 16.4952 26.2802 16.4747C26.3059 16.4546 26.3242 16.4395 26.3351 16.4292C26.3689 16.3947 26.3966 16.3671 26.4185 16.3466C26.4441 16.3266 26.4707 16.3106 26.4981 16.2986C26.5256 16.2866 26.555 16.2749 26.5863 16.2634C26.6176 16.2519 26.6583 16.2358 26.7082 16.2151C26.7153 16.2043 26.733 16.191 26.7615 16.1753C26.7911 16.1558 26.8097 16.1465 26.8175 16.1476C26.8273 16.1411 26.8435 16.1334 26.866 16.1247C26.8896 16.1122 26.9053 16.1065 26.913 16.1075C26.9422 16.1035 26.9797 16.0987 27.0255 16.093C27.0761 16.0841 27.1249 16.0749 27.1717 16.0655C27.2185 16.056 27.2585 16.0496 27.2915 16.0462C27.3257 16.0389 27.3447 16.0356 27.3486 16.0361C27.3855 16.0332 27.4225 16.0302 27.4594 16.0273C27.4887 16.0234 27.5174 16.0213 27.5455 16.0211C27.5747 16.0171 27.5971 16.0162 27.6126 16.0182C27.7404 16.035 27.8766 16.0647 28.0214 16.1071C28.1671 16.1458 28.2955 16.1822 28.4064 16.2163C28.4103 16.2168 28.4203 16.224 28.4365 16.2379C28.4577 16.2484 28.4783 16.2609 28.4984 16.2752C28.5234 16.2863 28.5459 16.2991 28.566 16.3134C28.5871 16.324 28.6016 16.3298 28.6093 16.3308C28.6519 16.3364 28.6913 16.3318 28.7276 16.3171C28.7638 16.3024 28.7986 16.2855 28.8321 16.2665C28.8694 16.248 28.9042 16.2312 28.9366 16.2159C28.9728 16.2012 29.0122 16.1966 29.0548 16.2022C29.0858 16.2063 29.1073 16.2228 29.1193 16.2517C29.1313 16.2806 29.1359 16.3143 29.1331 16.353C29.1353 16.3883 29.1311 16.4248 29.1206 16.4625C29.115 16.4968 29.1095 16.5234 29.1043 16.5422C29.0832 16.6175 29.0477 16.6869 28.9978 16.7505C28.9518 16.8147 28.9154 16.8801 28.8887 16.9468C28.8673 16.9947 28.8455 17.0581 28.8234 17.1371C28.8013 17.2161 28.772 17.2922 28.7355 17.3654C28.7038 17.4353 28.6608 17.496 28.6063 17.5473C28.5567 17.5954 28.4912 17.6141 28.4099 17.6034C28.3557 17.5962 28.3194 17.568 28.301 17.5188C28.2876 17.4664 28.2796 17.4088 28.2771 17.346C28.2756 17.2795 28.2741 17.213 28.2727 17.1465C28.2712 17.08 28.2597 17.0278 28.2382 16.9899C28.2075 16.9273 28.1696 16.8619 28.1245 16.7935C28.0832 16.7257 28.0346 16.6627 27.9786 16.6046C27.9236 16.5428 27.8596 16.4915 27.7867 16.4507C27.7187 16.4066 27.6421 16.379 27.5569 16.3678L27.5279 16.3639C27.3917 16.3772 27.265 16.3995 27.1478 16.4309C27.0344 16.4628 26.931 16.5096 26.8374 16.5714C26.7477 16.6337 26.6693 16.7131 26.6021 16.8096C26.535 16.906 26.4814 17.0258 26.4414 17.1687L26.4241 17.2308C26.4188 17.2496 26.4172 17.2767 26.4194 17.3121C26.4226 17.3437 26.4247 17.3791 26.4258 17.4182C26.4308 17.4579 26.4363 17.4957 26.4423 17.5315C26.4494 17.5637 26.4571 17.5862 26.4656 17.599C26.4625 17.6103 26.4612 17.6218 26.4619 17.6336C26.4676 17.6421 26.4732 17.6507 26.4789 17.6592C26.5261 17.72 26.5659 17.7643 26.5983 17.792C26.6308 17.8196 26.6855 17.8463 26.7626 17.8721C26.7655 17.8764 26.7799 17.8822 26.806 17.8895C26.832 17.8968 26.8619 17.9047 26.8957 17.913C26.9306 17.9176 26.963 17.9238 26.9929 17.9317C27.0229 17.9395 27.0431 17.9461 27.0537 17.9514C27.0565 17.9556 27.0679 17.9649 27.088 17.9793C27.113 17.9904 27.1375 18.0034 27.1615 18.0182C27.1903 18.0298 27.2153 18.0409 27.2365 18.0515C27.2615 18.0626 27.2759 18.0684 27.2798 18.0689C27.2904 18.0742 27.3154 18.0853 27.3548 18.1022C27.3992 18.1158 27.4449 18.1316 27.4921 18.1495C27.5393 18.1674 27.5832 18.1829 27.6237 18.1961C27.668 18.2097 27.696 18.2173 27.7076 18.2188C27.721 18.2284 27.7422 18.239 27.771 18.2506C27.8048 18.2589 27.8246 18.2674 27.8302 18.2759C27.833 18.2802 27.8387 18.2887 27.8471 18.3016C27.8605 18.3111 27.8734 18.3226 27.8857 18.3359L27.9312 18.3887C27.9379 18.3935 27.9537 18.4014 27.9787 18.4125C28.0037 18.4236 28.0301 18.4368 28.058 18.4522C28.0868 18.4638 28.1113 18.4767 28.1314 18.4911C28.1564 18.5022 28.1723 18.5101 28.179 18.5149C28.1828 18.5154 28.189 18.5221 28.1975 18.5349C28.2098 18.5482 28.2216 18.5634 28.2329 18.5805C28.2452 18.5938 28.2551 18.6088 28.2625 18.6254C28.2748 18.6387 28.2829 18.6456 28.2868 18.6461C28.2886 18.6541 28.2956 18.6648 28.308 18.6781C28.3213 18.6877 28.3361 18.6994 28.3523 18.7132C28.3696 18.7233 28.3849 18.7331 28.3983 18.7427C28.4156 18.7528 28.4261 18.7581 28.43 18.7586C28.5572 18.8923 28.6331 19.0447 28.6575 19.2156C28.6869 19.3833 28.6747 19.5631 28.6211 19.7549C28.62 19.7587 28.616 19.7659 28.609 19.7767C28.6068 19.7842 28.6042 19.7937 28.6011 19.8049C28.593 19.8195 28.5868 19.8343 28.5826 19.8493C28.5731 19.8832 28.557 19.9337 28.5342 20.0009C28.5114 20.0681 28.488 20.1372 28.4642 20.2082C28.4413 20.2754 28.4201 20.3369 28.4004 20.3928C28.3808 20.4487 28.3694 20.4823 28.3662 20.4936C28.3346 20.5636 28.2829 20.6406 28.2112 20.7248C28.1444 20.8057 28.066 20.8851 27.9759 20.9629C27.8908 21.0376 27.8034 21.106 27.7137 21.1683C27.6278 21.2311 27.5501 21.2794 27.4804 21.3131C27.447 21.3321 27.3956 21.3507 27.3263 21.3689C27.257 21.387 27.1818 21.4045 27.1009 21.4211C27.021 21.434 26.943 21.4471 26.867 21.4605C26.792 21.4701 26.7336 21.4781 26.6917 21.4842L26.2153 21.4215C26.1843 21.4174 26.1423 21.41 26.0891 21.3991C26.0359 21.3882 25.9833 21.3754 25.9312 21.3607C25.8819 21.3503 25.8365 21.3404 25.7949 21.3311C25.7572 21.3222 25.7384 21.3178 25.7384 21.3178C25.7268 21.3163 25.706 21.3116 25.6761 21.3037C25.65 21.2964 25.622 21.2888 25.5921 21.281C25.5671 21.2699 25.5435 21.2609 25.5213 21.2541C25.5002 21.2435 25.4857 21.2377 25.478 21.2367C25.4703 21.2357 25.45 21.2291 25.4173 21.217C25.3894 21.2016 25.3669 21.1889 25.3496 21.1788C25.3123 21.1544 25.2714 21.1354 25.2271 21.1218C25.1876 21.1049 25.1462 21.0877 25.1029 21.0703C25.0607 21.0491 25.0209 21.0264 24.9835 21.0019C24.9472 20.9738 24.916 20.9345 24.8899 20.8843C24.8854 20.872 24.8809 20.8519 24.8767 20.8241C24.8724 20.7962 24.8682 20.7683 24.8639 20.7405C24.8607 20.7088 24.8565 20.681 24.8512 20.6569C24.8497 20.6333 24.8506 20.6159 24.8538 20.6046L25.1089 19.5851C25.1131 19.57 25.1294 19.5546 25.1579 19.5389C25.1914 19.5199 25.2158 19.5114 25.2313 19.5134ZM31.1905 21.3569C31.1958 21.381 31.2029 21.4131 31.2117 21.4533C31.2206 21.4935 31.2333 21.5342 31.2499 21.5753C31.2714 21.6133 31.2959 21.6477 31.3234 21.6786C31.3547 21.7101 31.3898 21.7283 31.4285 21.7334C31.45 21.7284 31.4646 21.7265 31.4723 21.7275C31.4801 21.7285 31.4942 21.7284 31.5146 21.7272C31.5438 21.7232 31.5667 21.7204 31.5832 21.7187C31.6036 21.7175 31.6158 21.7171 31.6196 21.7176C31.6313 21.7192 31.6594 21.719 31.7041 21.7171C31.7527 21.7156 31.8032 21.7145 31.8557 21.7136C31.9092 21.7089 31.9583 21.7057 32.003 21.7037C32.0526 21.6986 32.0838 21.6949 32.0964 21.6926C32.1411 21.6907 32.1932 21.6839 32.2527 21.6723C32.3171 21.6573 32.3757 21.6202 32.4285 21.5608C32.4531 21.5446 32.4738 21.5278 32.4907 21.5105C32.5076 21.4933 32.5218 21.4854 32.5335 21.4869C32.5366 21.4756 32.5479 21.4713 32.5672 21.4738C32.5877 21.4726 32.6081 21.4714 32.6285 21.4702L32.6929 21.4552C32.7123 21.4578 32.7283 21.4579 32.741 21.4557C32.7547 21.4497 32.7761 21.4447 32.8054 21.4408C33.045 21.3163 33.2487 21.191 33.4165 21.0649C33.5843 20.9388 33.7271 20.8016 33.8448 20.6533C33.9676 20.5017 34.0683 20.3355 34.1469 20.1548C34.2305 19.9708 34.305 19.7621 34.3702 19.5289C34.4028 19.4123 34.4293 19.289 34.4496 19.1591C34.4748 19.0259 34.4854 18.8947 34.4814 18.7654C34.4813 18.6367 34.4641 18.5116 34.4298 18.3901C34.3956 18.2685 34.3402 18.1579 34.2637 18.0581C34.256 18.0571 34.2459 18.0499 34.2336 18.0366C34.2213 18.0233 34.2094 18.0081 34.1982 17.991C34.1753 17.9724 34.1476 17.9492 34.1152 17.9215C34.0877 17.8906 34.0754 17.8773 34.0782 17.8816C34.0792 17.8778 34.078 17.8679 34.0745 17.8518C34.0709 17.8358 34.0655 17.8194 34.0581 17.8029C34.0556 17.783 34.0501 17.7667 34.0416 17.7539C34.0381 17.7378 34.0349 17.7277 34.0321 17.7234C33.9834 17.639 33.9411 17.5749 33.9052 17.5312C33.8703 17.4837 33.8234 17.4287 33.7646 17.3664L33.5067 17.1686C33.5 17.1638 33.4643 17.1552 33.3995 17.1428C33.3357 17.1266 33.2628 17.1073 33.1808 17.0848C33.1354 17.0749 33.0856 17.0664 33.0313 17.0592C32.9771 17.0521 32.9065 17.0389 32.8196 17.0197C32.7498 17.0105 32.6884 17.0219 32.6353 17.0539C32.586 17.0864 32.5433 17.1315 32.5071 17.1891C32.4709 17.2468 32.4389 17.3108 32.4112 17.3813C32.3873 17.4522 32.3654 17.5235 32.3454 17.5949C32.3268 17.6471 32.3087 17.6974 32.2912 17.7458C32.2736 17.7942 32.2541 17.8423 32.2327 17.8902C32.1698 18.0574 32.1065 18.2265 32.0425 18.3975C31.9786 18.5685 31.923 18.7387 31.8757 18.908C31.8493 19.002 31.8274 19.0947 31.8099 19.186C31.7973 19.274 31.7828 19.3618 31.7663 19.4494C31.7478 19.5444 31.7273 19.6393 31.7048 19.7338C31.6824 19.8284 31.6575 19.9245 31.6301 20.0224C31.628 20.0299 31.6187 20.056 31.6022 20.1006C31.5857 20.1452 31.5712 20.1901 31.5585 20.2352C31.5361 20.2869 31.519 20.3334 31.5074 20.3748C31.4959 20.4162 31.4875 20.4463 31.4822 20.4651C31.4361 20.5292 31.398 20.6081 31.3678 20.7016C31.3387 20.7914 31.3136 20.8739 31.2926 20.9491L31.2389 21.141C31.2273 21.1823 31.2177 21.224 31.21 21.2659C31.2033 21.304 31.1974 21.3325 31.1921 21.3513L31.1905 21.3569ZM29.0611 21.5622C29.0695 21.5321 29.0823 21.5006 29.0996 21.4678C29.1178 21.4312 29.1446 21.4074 29.1798 21.3964C29.1875 21.3974 29.2069 21.4 29.2378 21.4041C29.2699 21.4044 29.3014 21.4066 29.3324 21.4107C29.3693 21.4077 29.4058 21.4067 29.4417 21.4075C29.4776 21.4083 29.5005 21.4055 29.5103 21.399C29.5181 21.4 29.5409 21.3972 29.579 21.3905C29.6208 21.3843 29.6467 21.3779 29.6566 21.3714C29.6643 21.3724 29.6764 21.3721 29.693 21.3704C29.7173 21.3697 29.7479 21.3679 29.7849 21.3649C29.8092 21.3642 29.8349 21.3656 29.862 21.3692C29.8929 21.3733 29.9142 21.3761 29.9259 21.3776C29.959 21.3742 30.0028 21.3683 30.0573 21.3598C30.1129 21.3477 30.1418 21.3378 30.1439 21.3303L30.4004 20.6503L30.4367 20.5205C30.4353 20.4969 30.4416 20.4529 30.4556 20.3884C30.4735 20.3245 30.4905 20.2565 30.5066 20.1845C30.5266 20.113 30.5456 20.0453 30.5634 19.9814C30.5824 19.9137 30.5961 19.8648 30.6045 19.8347C30.6213 19.7745 30.6408 19.7263 30.663 19.6903C30.69 19.6509 30.7143 19.6073 30.7357 19.5594C30.7487 19.5416 30.7608 19.5198 30.7721 19.494C30.7882 19.4649 30.8044 19.4359 30.8206 19.4068L30.8237 19.3955C30.8374 19.3466 30.8462 19.3009 30.85 19.2585C30.8588 19.2129 30.8656 19.167 30.8705 19.1208L30.9262 18.8356C30.9346 18.8055 30.9439 18.7795 30.9541 18.7574C30.9653 18.7316 30.9843 18.7068 31.011 18.683L31.0258 18.6732L31.4236 17.2513C31.4247 17.2475 31.4182 17.2349 31.404 17.2136C31.3949 17.189 31.3799 17.1636 31.3591 17.1375C31.3432 17.1081 31.3249 17.0803 31.3041 17.0542C31.2833 17.028 31.2667 17.0083 31.2544 16.995L31.2428 16.9934C31.2389 16.9929 31.2109 16.9853 31.1588 16.9707C31.1077 16.9523 31.0697 16.9375 31.0447 16.9264C31.0563 16.9279 31.0303 16.9206 30.9665 16.9044C30.9028 16.8882 30.8028 16.8653 30.6665 16.8357C30.5929 16.826 30.5317 16.8082 30.4827 16.7822C30.4338 16.7563 30.4219 16.6981 30.4472 16.6079L30.4677 16.5345C30.473 16.5157 30.4972 16.4935 30.5405 16.468C30.5613 16.4513 30.5785 16.4399 30.5922 16.4339C30.6109 16.4246 30.6367 16.4183 30.6698 16.4149C30.6885 16.4056 30.7182 16.3998 30.759 16.3973C30.7756 16.3956 30.7916 16.3958 30.8071 16.3978L30.9291 16.4139C31.0065 16.4241 31.0815 16.4359 31.1541 16.4494C31.2305 16.4633 31.3064 16.4792 31.3817 16.4969C31.4571 16.5146 31.5335 16.5286 31.6109 16.5388C31.6884 16.549 31.76 16.5584 31.8259 16.5671C31.8801 16.5742 31.929 16.5787 31.9727 16.5805C32.0212 16.5791 32.0742 16.5763 32.1316 16.5722C32.1802 16.5708 32.2312 16.5678 32.2847 16.5631C32.3382 16.5584 32.3921 16.5597 32.4463 16.5668C32.4657 16.5694 32.4801 16.5752 32.4896 16.5842C32.5002 16.5895 32.519 16.594 32.5461 16.5975C32.5595 16.6071 32.5749 16.6169 32.5921 16.627C32.6143 16.6338 32.6351 16.6385 32.6544 16.641C32.6815 16.6446 32.718 16.6435 32.7637 16.6379C32.7852 16.6329 32.8061 16.6298 32.8266 16.6286C32.848 16.6236 32.8684 16.6224 32.8878 16.625C32.9188 16.629 32.9473 16.6347 32.9734 16.6421C32.9994 16.6494 33.0306 16.6672 33.0669 16.6953L33.764 16.7871L33.8533 16.834C33.8765 16.837 33.9147 16.844 33.9679 16.8549C34.0211 16.8658 34.0756 16.8788 34.1316 16.894C34.1925 16.9059 34.249 16.9192 34.3012 16.9339C34.3582 16.9453 34.3973 16.9563 34.4184 16.9669L34.43 16.9684C34.4339 16.9689 34.4473 16.9785 34.4702 16.9971C34.498 17.0125 34.5248 17.0316 34.5505 17.0545C34.5812 17.0741 34.6093 17.0954 34.6351 17.1183C34.6647 17.1417 34.6876 17.1603 34.7038 17.1741C34.7696 17.2257 34.8306 17.2805 34.8866 17.3386C34.9427 17.3967 34.9934 17.4521 35.0389 17.5049C35.1101 17.5806 35.1793 17.656 35.2466 17.7312C35.3188 17.8031 35.3784 17.8558 35.4252 17.8892C35.4249 17.9048 35.4286 17.9345 35.4364 17.9785C35.4481 18.0229 35.4601 18.0733 35.4725 18.1295C35.4887 18.1862 35.5039 18.2467 35.5181 18.311C35.5371 18.372 35.5553 18.429 35.5726 18.482C35.5797 18.5141 35.5839 18.542 35.5854 18.5656C35.5868 18.5892 35.5898 18.6071 35.5944 18.6194C35.6132 18.7389 35.6244 18.8496 35.628 18.9515C35.6316 19.0534 35.6275 19.1542 35.6156 19.2541C35.6076 19.3544 35.5908 19.4575 35.5652 19.5634C35.5407 19.6655 35.5116 19.7767 35.4779 19.8971C35.4305 20.0663 35.3768 20.2153 35.3167 20.3439C35.2577 20.4687 35.1881 20.5883 35.108 20.7025C35.0289 20.813 34.9357 20.9236 34.8284 21.0343C34.7212 21.145 34.5942 21.2687 34.4476 21.4054C34.4127 21.4437 34.3705 21.4869 34.3209 21.535C34.2724 21.5793 34.1862 21.6362 34.0624 21.7057L33.9811 21.7594C33.9663 21.7692 33.9521 21.777 33.9384 21.783C33.9208 21.7885 33.8912 21.808 33.8497 21.8416C33.8092 21.8713 33.7813 21.8852 33.7658 21.8832C33.7559 21.8897 33.7133 21.9055 33.638 21.9307C33.5638 21.9521 33.4886 21.9695 33.4126 21.9829C33.3785 21.9901 33.3477 21.9997 33.3202 22.0117C33.2967 22.0242 33.2799 22.0337 33.2701 22.0402L33.2685 22.0459C33.2636 22.0491 33.2493 22.057 33.2258 22.0695C33.2071 22.0787 33.1841 22.0894 33.1566 22.1013C33.1302 22.1096 33.1038 22.1178 33.0774 22.126C33.0511 22.1342 33.0301 22.1373 33.0146 22.1353L32.8345 22.1116C32.8296 22.1148 32.812 22.1203 32.7817 22.128C32.7564 22.1325 32.7267 22.1383 32.6925 22.1456C32.6623 22.1533 32.6325 22.1591 32.6033 22.1631C32.5741 22.167 32.5556 22.1685 32.5479 22.1675C32.2381 22.1696 31.9112 22.1539 31.5672 22.1203C31.2271 22.0872 30.908 22.051 30.6098 22.0118L30.4297 21.9881L29.562 21.9031C29.5275 21.8829 29.4933 21.8687 29.4595 21.8603C29.4286 21.8563 29.3976 21.8522 29.3666 21.8481L29.2678 21.8351C29.2136 21.828 29.1619 21.8192 29.1126 21.8088C29.0633 21.7984 29.0277 21.782 29.0059 21.7597L29.0611 21.5622Z" fill="black"/>
<path d="M23.4668 63.3196C24.0382 64.1167 24.9237 64.4603 25.4445 64.0869L33.9321 58.003C34.4529 57.6296 34.4119 56.6808 33.8406 55.8836C33.2692 55.0865 32.3837 54.7429 31.8629 55.1163L24.3184 60.5242L16.0416 48.9774C15.4702 48.1803 14.5847 47.8367 14.0639 48.21C13.5431 48.5834 13.584 49.5322 14.1554 50.3294L23.4668 63.3196ZM21.6016 29.4574L23.0115 62.101L25.8083 63.1862L24.3984 30.5426L21.6016 29.4574Z" fill="black"/>
</svg>
